<svg width="58" height="58" viewBox="0 0 58 58" fill="none" xmlns="http://www.w3.org/2000/svg">
<path fill-rule="evenodd" clip-rule="evenodd" d="M36.0714 36.0699C33.0152 39.1264 28.4898 39.7867 24.7864 38.074C24.2397 37.8539 23.7915 37.676 23.3654 37.676C22.1785 37.6831 20.7012 38.8339 19.9334 38.067C19.1656 37.2991 20.3173 35.8206 20.3173 34.6266C20.3173 34.2004 20.1464 33.7602 19.9263 33.2124C18.2128 29.5097 18.8741 24.9827 21.9303 21.9272C25.8316 18.0245 32.17 18.0245 36.0714 21.9262C39.9797 25.835 39.9727 32.1681 36.0714 36.0699Z" stroke="#23262F" stroke-width="1.5" stroke-linecap="round" stroke-linejoin="round"/>
<path d="M32.9393 29.413H32.9483" stroke="#23262F" stroke-width="2" stroke-linecap="round" stroke-linejoin="round"/>
<path d="M28.9306 29.413H28.9396" stroke="#23262F" stroke-width="2" stroke-linecap="round" stroke-linejoin="round"/>
<path d="M24.9213 29.413H24.9303" stroke="#23262F" stroke-width="2" stroke-linecap="round" stroke-linejoin="round"/>
</svg>
